<svg width="97" height="32" viewBox="0 0 97 32" fill="none" xmlns="http://www.w3.org/2000/svg">
<g clip-path="url(#clip0_3721_15654)">
<path fill-rule="evenodd" clip-rule="evenodd" d="M2.13266 16C2.13266 8.34168 8.33904 2.13334 15.995 2.13334H27.7246V0H15.995C7.16119 0 0 7.16344 0 16V23.4591C0.601152 22.335 1.31728 21.2815 2.13266 20.3146V16ZM6.39799 16C6.39799 10.6981 10.6947 6.4 15.995 6.4H27.7246V4.26666H15.995C9.51688 4.26666 4.26533 9.51984 4.26533 16V18.1739C4.93598 17.6041 5.64864 17.0821 6.39799 16.6134V16ZM15.995 10.6666C13.5316 10.6666 11.4585 12.3377 10.8466 14.6084C10.0572 14.8418 9.29024 15.1277 8.54976 15.4618C8.82552 11.5893 12.0534 8.53336 15.995 8.53336H27.7246V10.6666H15.995ZM2.13266 32C2.13266 24.3417 8.33904 18.1334 15.995 18.1334H27.7246V16H15.995C12.3942 16 9.07128 17.1902 6.39799 19.1988L6.39643 19.2C2.5123 22.1191 0 26.7661 0 32H2.13266ZM15.995 22.4C10.6947 22.4 6.39799 26.6981 6.39799 32H4.26533C4.26533 25.5198 9.51688 20.2666 15.995 20.2666H27.7246V22.4H15.995ZM15.995 26.6666C13.0504 26.6666 10.6633 29.0545 10.6633 32H8.53064C8.53064 27.8762 11.8726 24.5334 15.995 24.5334H27.7246V26.6666H15.995ZM59.3166 26.6794H55.3998V3.94668H59.3166V26.6794ZM40.4208 26.6794H36.2553V4.2846H52.2646V7.84812H40.4208V14.0229H51.0211V17.4328H40.4208V26.6794ZM78.7308 10.3672H74.7829V18.9381C74.7829 21.7643 73.2286 23.6997 70.7106 23.6997C68.659 23.6997 67.5398 22.5323 67.5398 20.044V10.3672H63.5609V20.6277C63.5609 24.5598 65.4882 26.9867 69.063 26.9867C71.7054 26.9867 73.5705 25.6965 74.5031 23.669H74.7829L75.3114 26.6794H78.7308V10.3672ZM84.8288 26.6794H80.7256L86.3208 18.508L80.912 10.3672H85.0776L88.5904 15.989H88.808L92.2896 10.3672H96.3928L91.108 18.4773L96.5792 26.6794H92.3512L88.7456 21.1192H88.528L84.8288 26.6794Z" fill="white"/>
</g>
<defs>
<clipPath id="clip0_3721_15654">
<rect width="96.8" height="32" fill="white"/>
</clipPath>
</defs>
</svg>
