<svg width="923" height="382" viewBox="0 0 923 382" fill="none" xmlns="http://www.w3.org/2000/svg">
<g filter="url(#filter0_ddd_2979_25486)">
<g clip-path="url(#clip0_2979_25486)">
<rect x="80" width="763" height="382" rx="16" fill="url(#paint0_linear_2979_25486)"/>
<g opacity="0.4">
<mask id="mask0_2979_25486" style="mask-type:luminance" maskUnits="userSpaceOnUse" x="391" y="191" width="277" height="277">
<path fill-rule="evenodd" clip-rule="evenodd" d="M391 191H668V468H391V191Z" fill="white"/>
</mask>
<g mask="url(#mask0_2979_25486)">
<path fill-rule="evenodd" clip-rule="evenodd" d="M529.036 191.001C605.527 190.745 667.743 252.545 667.999 329.036C668.255 405.527 606.455 467.743 529.964 467.999C453.473 468.255 391.257 406.455 391.001 329.964C390.745 253.473 452.545 191.257 529.036 191.001Z" fill="#030C17"/>
</g>
<path opacity="0.1" fill-rule="evenodd" clip-rule="evenodd" d="M616.061 415.483C663.543 367.661 663.304 290.419 615.483 242.937C567.661 195.455 490.419 195.693 442.937 243.515L616.061 415.483Z" fill="white"/>
<path fill-rule="evenodd" clip-rule="evenodd" d="M604.361 288.242L588.613 272.358L580.042 281.065C580.008 281.031 579.974 280.997 579.94 280.963L572.967 288.004L530.077 331.472L502.935 303.956C497.323 309.806 493.616 317.493 492.799 325.996L530.077 363.784L572.253 321.03C572.797 323.751 573.069 326.574 573.069 329.465C573.069 353.478 553.512 373.035 529.499 373.035C505.486 373.035 485.929 353.478 485.929 329.465C485.929 305.452 505.486 285.895 529.499 285.895C539.363 285.895 548.478 289.194 555.791 294.738L574.464 275.793C562.287 265.589 546.607 259.399 529.499 259.399C490.895 259.399 459.467 290.827 459.467 329.431C459.467 368.069 490.895 399.463 529.499 399.463C568.103 399.463 599.531 368.035 599.531 329.431C599.531 318.819 597.15 308.785 592.932 299.772L604.361 288.242Z" fill="white"/>
<mask id="mask1_2979_25486" style="mask-type:luminance" maskUnits="userSpaceOnUse" x="492" y="303" width="39" height="61">
<path fill-rule="evenodd" clip-rule="evenodd" d="M492.833 325.996L530.077 363.784H530.111V331.472L502.969 303.955C497.357 309.805 493.65 317.458 492.833 325.996Z" fill="white"/>
</mask>
<g mask="url(#mask1_2979_25486)">
<path fill-rule="evenodd" clip-rule="evenodd" d="M492.833 325.996L530.077 363.784H530.111V331.472L502.969 303.955C497.357 309.805 493.65 317.458 492.833 325.996Z" fill="url(#paint1_linear_2979_25486)"/>
</g>
</g>
<g opacity="0.4" filter="url(#filter1_d_2979_25486)">
<path d="M531.536 52.0375C531.792 128.273 469.975 190.282 393.464 190.538C316.953 190.793 254.721 129.199 254.464 52.9626C254.208 -23.2734 316.025 -85.2819 392.536 -85.5374C469.047 -85.7929 531.279 -24.1985 531.536 52.0375Z" fill="#030C17"/>
<path opacity="0.2" d="M479.639 138.254C527.16 90.5599 526.93 13.6304 479.064 -33.7197C431.197 -81.0697 353.99 -80.8404 306.469 -33.1464L479.639 138.254Z" fill="white"/>
<path d="M405.999 40.1142C404.618 39.8849 403.352 39.541 402.087 39.3117C385.057 35.8722 372.746 33.4646 372.746 21.6557C372.746 14.3182 379.995 8.47109 392.997 8.47109C404.618 8.47109 413.823 13.1717 419.806 21.9997L420.727 22.229L439.252 3.31188L439.137 2.62399C431.773 -6.08934 422.453 -12.1657 411.752 -15.3759C410.256 -15.8345 408.875 -16.1785 407.38 -16.5224H407.265C406.689 -16.637 406.229 -16.7517 405.654 -16.8663V-33.6051H380.34V-16.8663C379.534 -16.7517 378.729 -16.5224 377.924 -16.4077H377.808C365.842 -13.5415 355.371 -7.35048 347.202 2.16539C343.75 7.89784 342.024 14.7768 342.024 22.6876C342.024 49.7447 362.505 58.3434 382.526 63.1587C386.208 64.0759 389.89 64.7638 393.457 65.337C405.999 67.63 416.815 69.579 416.815 80.8146C416.815 87.8082 409.106 96.5215 392.997 96.5215C383.447 96.5215 375.622 93.3114 369.869 87.4643C369.524 87.1203 369.064 86.7764 368.718 86.4324L346.857 101.566V102.369C349.963 106.037 353.415 109.248 357.097 111.999C358.363 112.916 359.628 113.719 360.894 114.521C360.894 114.521 360.894 114.521 361.009 114.521C362.275 115.324 363.656 116.012 364.921 116.7C364.921 116.7 365.036 116.7 365.036 116.814C366.417 117.502 367.683 118.076 369.064 118.649C369.179 118.649 369.179 118.649 369.294 118.763C370.675 119.337 372.055 119.795 373.436 120.254C373.551 120.254 373.666 120.254 373.666 120.369C374.357 120.598 374.932 120.712 375.622 120.942C375.737 120.942 375.737 120.942 375.852 120.942C376.543 121.171 377.233 121.286 378.039 121.515C378.154 121.515 378.269 121.515 378.384 121.63C378.959 121.744 379.649 121.859 380.225 121.974V138.712H405.539V121.974C405.999 121.859 406.459 121.859 406.919 121.744C407.034 121.744 407.034 121.744 407.149 121.744C408.875 121.4 410.601 120.942 412.327 120.369C413.133 120.139 414.053 119.795 414.859 119.566C424.179 116.127 432.348 110.394 439.022 102.598C441.553 99.6171 443.739 96.5215 445.696 93.0821C446.731 89.4133 447.191 85.2859 447.191 80.9293C447.306 51.8084 425.214 43.8976 405.999 40.1142Z" fill="#FAFBFC"/>
<path d="M346.972 102.254C345.706 100.764 344.556 99.2732 343.52 97.6681C343.06 96.9802 342.6 96.2923 342.139 95.7191C342.024 95.6044 341.909 95.3752 341.794 95.2605C341.449 94.6873 340.989 93.9994 340.643 93.3115C340.528 93.0822 340.413 92.8529 340.298 92.6236C339.953 92.0503 339.608 91.3624 339.263 90.7892C339.148 90.5599 339.033 90.3306 338.918 90.1013C338.572 89.528 338.227 88.8402 337.997 88.1523C337.882 87.923 337.767 87.579 337.652 87.3497C337.307 86.6618 337.077 86.0886 336.731 85.4007C336.616 85.1714 336.501 84.9421 336.386 84.5981C336.156 83.9102 335.811 83.2224 335.581 82.5345C335.581 82.4198 335.466 82.1905 335.466 82.0759C334.89 80.4708 334.315 78.8657 333.855 77.2606C333.855 77.146 333.74 77.0313 333.74 76.802C333.625 76.2288 333.394 75.6555 333.279 75.0823C333.164 74.6237 333.049 74.1651 332.934 73.7065C332.819 73.1332 332.704 72.6746 332.589 72.1014C332.474 71.6428 332.359 71.0695 332.244 70.611C332.129 70.0377 332.014 69.5791 331.899 69.0059C331.784 68.4326 331.669 67.8594 331.553 67.2861C331.438 66.8275 331.438 66.2543 331.323 65.7957C331.208 65.2224 331.093 64.6492 331.093 63.9613C330.978 63.5027 330.978 63.0441 330.863 62.4709C330.748 61.783 330.748 61.2097 330.633 60.5218C330.633 60.0632 330.518 59.6046 330.518 59.146C330.518 58.3435 330.403 57.6556 330.403 56.8531C330.403 56.5091 330.403 56.1652 330.288 55.7066C330.288 54.5601 330.173 53.4136 330.173 52.2671C330.173 51.1206 330.173 50.0888 330.288 48.9423C330.288 48.5983 330.288 48.2544 330.288 47.9104C330.288 47.1079 330.403 46.42 330.403 45.6175C330.403 45.2735 330.518 44.8149 330.518 44.471C330.633 43.7831 330.633 42.9805 330.748 42.2926C330.748 41.9487 330.863 41.6047 330.863 41.2608C330.978 40.3436 331.093 39.5411 331.208 38.7385C331.208 38.5092 331.208 38.2799 331.323 38.1653C331.438 37.1334 331.669 36.1016 331.899 35.0697C332.014 34.7258 332.014 34.3818 332.129 34.1525C332.244 33.4647 332.474 32.7768 332.589 32.0889C332.704 31.7449 332.819 31.2863 332.819 30.9424C332.934 30.2545 333.164 29.6812 333.279 28.9933C333.394 28.6494 333.51 28.1908 333.625 27.8468C333.855 27.159 334.085 26.4711 334.2 25.7832C334.315 25.4392 334.43 25.2099 334.545 24.866C334.89 23.9488 335.235 23.0316 335.581 22.1144C335.696 21.7704 335.811 21.5412 335.926 21.1972C336.156 20.5093 336.386 19.9361 336.731 19.2482C336.846 18.9042 337.077 18.5603 337.192 18.1017C337.422 17.5284 337.652 17.0698 337.997 16.4966C338.227 16.1526 338.342 15.694 338.572 15.3501C338.802 14.7769 339.148 14.3183 339.378 13.745C339.608 13.4011 339.723 13.0571 339.953 12.7132C340.413 11.9106 340.874 11.1081 341.334 10.3055C340.298 14.089 339.838 18.2163 339.838 22.573C339.838 37.4774 346.166 48.8276 358.708 56.5091C359.399 69.9231 363.311 80.4708 369.984 87.2351L346.972 102.254Z" fill="url(#paint2_linear_2979_25486)"/>
<path d="M419.922 21.9997C423.834 27.8468 426.365 35.1843 427.286 44.0123C430.508 45.5027 433.269 47.2225 435.801 49.1715C445.121 56.3944 449.838 66.9421 449.838 80.356C449.838 81.9611 449.723 83.5662 449.608 85.1713V85.0566C450.068 84.0248 450.529 82.8783 450.874 81.7318C450.989 81.3879 451.104 81.1586 451.219 80.8146C451.449 80.0121 451.794 79.2095 452.024 78.407C452.14 78.063 452.255 77.6045 452.37 77.2605C452.485 76.8019 452.715 76.2287 452.83 75.7701C453.06 75.0822 453.175 74.5089 453.405 73.821C453.52 73.3624 453.635 72.7892 453.75 72.3306C453.865 71.7573 453.981 71.1841 454.096 70.6109C454.211 70.2669 454.211 69.8083 454.326 69.4644C454.441 68.6618 454.671 67.7446 454.786 66.9421C454.786 66.5981 454.901 66.2542 454.901 65.9102C455.016 64.9931 455.131 64.0759 455.246 63.1587C455.246 62.9294 455.246 62.8147 455.361 62.5854C455.476 61.6682 455.591 60.8657 455.591 59.9485C455.591 59.7192 455.591 59.4899 455.706 59.2606C455.822 58.2288 455.822 57.1969 455.937 56.1651C455.937 55.9358 455.937 55.7065 455.937 55.4772C455.937 54.4453 456.052 53.2989 456.052 52.267C456.052 51.1205 456.052 49.974 455.937 48.7129C455.937 48.3689 455.937 48.025 455.822 47.5664C455.822 46.7639 455.706 45.9613 455.706 45.2734C455.706 44.8148 455.591 44.3562 455.591 43.8976C455.476 43.2097 455.476 42.5218 455.361 41.834C455.361 41.3754 455.246 40.9168 455.131 40.3435C455.016 39.6556 455.016 39.0824 454.901 38.3945C454.786 37.9359 454.786 37.3626 454.671 36.904C454.556 36.3308 454.441 35.6429 454.326 35.0697C454.211 34.6111 454.096 34.0378 453.981 33.5792C453.865 33.006 453.75 32.4327 453.635 31.8595C453.52 31.4009 453.405 30.8276 453.29 30.369C453.175 29.7958 452.945 29.2226 452.83 28.6493C452.715 28.1907 452.6 27.6175 452.37 27.1589C452.255 26.5856 452.024 26.127 451.909 25.5538C451.794 25.0952 451.564 24.5219 451.449 24.0633C451.219 23.4901 451.104 23.0315 450.874 22.5729C450.644 22.1143 450.529 21.5411 450.298 21.0825C450.068 20.6239 449.953 20.0506 449.723 19.592C449.493 19.1334 449.263 18.5602 449.148 18.1016C448.918 17.643 448.688 17.1844 448.457 16.7258C448.227 16.2672 447.997 15.8086 447.767 15.2354C447.537 14.7768 447.307 14.3182 447.077 13.8596C446.847 13.401 446.616 12.9424 446.271 12.4838C446.041 12.0252 445.811 11.5666 445.466 11.2227C445.236 10.7641 444.891 10.3055 444.66 9.84687C444.43 9.38827 444.085 9.04432 443.855 8.58573C443.05 7.32459 442.129 6.06345 441.209 4.80231C440.518 3.88512 439.828 3.08257 439.137 2.28003L419.922 21.9997Z" fill="url(#paint3_linear_2979_25486)"/>
</g>
<path d="M727.117 341.465L722.565 333.652C722.461 333.652 722.396 333.652 722.304 333.652H718.835V341.465H714.296V318.574H722.304C727.926 318.574 731.291 321.613 731.291 326.217C731.291 329.361 729.752 331.643 726.974 332.791L732.204 341.452H727.117V341.465ZM718.848 329.596H722.904C725.422 329.596 726.596 327.965 726.596 326.23C726.596 324.43 725.383 322.826 722.904 322.826H718.848V329.596ZM734.291 341.465V318.574H738.83V341.452H734.291V341.465ZM759.883 339.078C758.643 340.487 755.93 341.922 752.957 341.922C746.383 341.922 741.087 336.926 741.087 330.026C741.087 323.126 746.383 318.13 752.957 318.13C757.496 318.17 761.291 320.517 763.352 324.183L758.709 325.396C757.47 323.7 755.213 322.617 752.957 322.617C748.678 322.617 745.835 325.696 745.835 330.039C745.835 334.578 748.978 337.487 753.217 337.487C757.143 337.487 759.204 335.335 759.922 333.561V332.583H753.583V328.878H763.809V341.465H759.883C759.883 339.574 759.922 339.117 759.922 339.078H759.883ZM767.004 341.465V318.574H771.543V341.452H767.004V341.465ZM794.983 318.574V341.452H790.704L784.196 332.622C782.135 329.804 779.617 326.217 779.591 326.217H779.552C779.526 326.217 779.591 329.517 779.591 334.057V341.439H775.052V318.574H779.33L785.97 327.496C787.535 329.557 790.417 333.639 790.443 333.639H790.483C790.522 333.639 790.443 329.909 790.443 326.061V318.574H794.983ZM711.048 323.896L707.343 327.6C707.487 328.33 707.565 329.139 707.565 330.013C707.565 334.696 705.361 337.5 701.67 337.5C700.13 337.5 698.839 337.004 697.861 336.065L710.696 323.23C710.357 322.617 709.965 322.057 709.522 321.535C709.339 321.313 709.143 321.117 708.948 320.909C708.922 320.883 708.896 320.857 708.87 320.83C708.804 320.778 708.752 320.713 708.687 320.661C706.809 318.913 704.422 318 701.67 318C698.5 318 695.787 319.213 693.843 321.522C692.004 323.7 691 326.713 691 330.013C691 332.204 691.443 334.265 692.278 336.039L696.009 332.309C695.878 331.604 695.813 330.835 695.813 330C695.813 327.848 696.257 326.1 697.117 324.809C698.135 323.309 699.713 322.513 701.67 322.513C703.196 322.513 704.474 322.996 705.439 323.896L692.63 336.704C692.983 337.343 693.387 337.943 693.843 338.478C693.935 338.583 694.026 338.687 694.13 338.791C694.235 338.909 694.352 339.026 694.47 339.143C694.483 339.157 694.496 339.17 694.509 339.183C694.548 339.222 694.574 339.261 694.613 339.287C696.478 341.061 698.891 342 701.67 342C704.852 342 707.565 340.787 709.522 338.478C711.361 336.3 712.378 333.3 712.378 330C712.378 327.783 711.909 325.683 711.048 323.896Z" fill="white"/>
<path d="M229.935 172.568C219.135 172.568 211.263 179.768 211.263 191.048C211.263 202.328 219.135 209.528 229.935 209.528C240.639 209.528 248.559 202.328 248.559 191.048C248.559 179.768 240.639 172.568 229.935 172.568ZM229.935 179.144C236.415 179.144 240.975 183.608 240.975 191.048C240.975 198.44 236.415 202.952 229.935 202.952C223.359 202.952 218.799 198.44 218.799 191.048C218.799 183.608 223.359 179.144 229.935 179.144ZM284.565 173.096H277.173V194.312C277.173 199.928 274.389 202.952 269.301 202.952C264.117 202.952 261.381 199.928 261.381 194.312V173.096H253.989V194.408C253.989 204.008 259.797 209.528 269.301 209.528C278.709 209.528 284.565 204.008 284.565 194.408V173.096ZM303.405 172.568C294.813 172.568 290.637 177.656 290.637 183.56C290.637 190.52 296.013 192.392 302.493 194.024C307.293 195.224 309.885 196.232 309.885 198.968C309.885 201.896 307.533 203.096 304.221 203.096C300.333 203.096 297.501 200.888 297.357 197.624L289.821 198.008C289.917 205.448 295.917 209.528 304.221 209.528C311.421 209.528 317.421 206.168 317.421 198.536C317.421 192.152 312.573 189.848 305.229 187.976C300.285 186.824 298.221 186.056 298.221 183.32C298.221 180.776 300.141 179 303.549 179C306.957 179 309.069 180.968 309.117 183.992L316.701 183.608C316.509 176.696 311.181 172.568 303.405 172.568ZM337.592 173.096H322.808V209H337.544C347.768 209 355.4 202.328 355.4 191.048C355.4 179.768 347.816 173.096 337.592 173.096ZM337.64 179.432C343.928 179.432 348.056 183.32 348.056 191.048C348.056 198.776 343.88 202.664 337.64 202.664H330.2V179.432H337.64ZM377.33 173.096H370.034L357.794 212.216H365.138L377.33 173.096ZM398.403 172.568C387.603 172.568 379.731 179.768 379.731 191.048C379.731 202.328 387.603 209.528 398.403 209.528C409.107 209.528 417.027 202.328 417.027 191.048C417.027 179.768 409.107 172.568 398.403 172.568ZM398.403 179.144C404.883 179.144 409.443 183.608 409.443 191.048C409.443 198.44 404.883 202.952 398.403 202.952C391.827 202.952 387.267 198.44 387.267 191.048C387.267 183.608 391.827 179.144 398.403 179.144ZM439.642 189.416V195.944H448.666C447.562 200.888 444.01 202.952 439.594 202.952C433.21 202.952 428.986 199.016 428.986 191.048C428.986 183.08 433.162 179.144 439.594 179.144C444.49 179.144 447.754 181.832 448.762 186.2L456.442 184.904C454.522 177.032 447.946 172.568 439.642 172.568C429.178 172.568 421.45 179.432 421.45 191.048C421.45 202.616 429.226 209.528 439.69 209.528C450.202 209.528 456.778 202.424 456.778 191.816V189.416H439.642ZM492.857 173.096H484.697L474.617 197.48L464.489 173.096H456.377L471.497 209H477.737L492.857 173.096ZM514.125 171.704H507.117V209H514.125V171.704ZM524.308 171.848C522.052 171.848 520.132 173.72 520.132 176.072C520.132 178.376 521.956 180.248 524.308 180.248C526.66 180.248 528.532 178.376 528.532 176.072C528.532 173.72 526.66 171.848 524.308 171.848ZM527.812 184.184H520.804V209H527.812V184.184ZM548.94 190.232V184.184H543.132L543.18 175.976H536.172L536.124 184.184H531.564V190.232H536.076L536.028 201.128C535.98 206.888 539.676 209.48 545.052 209.48C546.972 209.48 547.932 209.336 548.94 209.192V202.952C548.412 203.048 547.788 203.192 546.78 203.192C544.812 203.192 543.036 202.184 543.036 199.448L543.084 190.232H548.94ZM576.753 196.04C576.753 188.312 572.049 183.704 564.897 183.704C557.505 183.704 552.273 188.6 552.273 196.616C552.273 204.584 557.505 209.528 565.089 209.528C570.897 209.528 575.649 206.168 576.513 201.464L569.457 201.128C568.929 202.856 567.345 203.864 564.897 203.864C561.729 203.864 559.857 201.896 559.713 198.824H576.753V196.04ZM564.849 189.176C568.017 189.176 569.553 191.144 569.697 194.168H559.713C559.905 191 561.873 189.176 564.849 189.176ZM595.991 183.704C592.535 183.704 589.943 185.048 588.647 186.776V184.184H582.023V221.24H589.031V206.888C590.327 208.328 592.823 209.528 595.991 209.528C603.047 209.528 607.991 204.392 607.991 196.616C607.991 188.84 603.047 183.704 595.991 183.704ZM594.887 189.704C598.391 189.704 600.887 192.2 600.887 196.616C600.887 201.032 598.391 203.528 594.887 203.528C591.431 203.528 589.031 201.176 589.031 197.192V196.04C589.031 192.056 591.431 189.704 594.887 189.704ZM622.985 183.704C616.601 183.704 612.617 188.216 612.617 192.584L619.625 192.872C619.625 191.24 620.681 189.608 623.081 189.608C625.241 189.608 626.297 190.952 626.297 193.448V194.408L621.881 194.648C616.601 194.888 611.945 196.664 611.945 202.184C611.945 206.984 615.209 209.528 620.201 209.528C623.033 209.528 625.145 208.424 626.537 206.984V209H633.305V193.688C633.305 187.16 629.657 183.704 622.985 183.704ZM626.297 199.016V200.072C626.297 202.712 624.377 204.104 621.833 204.104C620.153 204.104 618.953 203.48 618.953 201.848C618.953 200.072 620.441 199.352 622.553 199.256L626.297 199.016ZM653.694 183.704C650.238 183.704 647.646 185.048 646.35 186.776V184.184H639.726V221.24H646.734V206.888C648.03 208.328 650.526 209.528 653.694 209.528C660.75 209.528 665.694 204.392 665.694 196.616C665.694 188.84 660.75 183.704 653.694 183.704ZM652.59 189.704C656.094 189.704 658.59 192.2 658.59 196.616C658.59 201.032 656.094 203.528 652.59 203.528C649.134 203.528 646.734 201.176 646.734 197.192V196.04C646.734 192.056 649.134 189.704 652.59 189.704ZM694.128 196.04C694.128 188.312 689.424 183.704 682.272 183.704C674.88 183.704 669.648 188.6 669.648 196.616C669.648 204.584 674.88 209.528 682.464 209.528C688.272 209.528 693.024 206.168 693.888 201.464L686.832 201.128C686.304 202.856 684.72 203.864 682.272 203.864C679.104 203.864 677.232 201.896 677.088 198.824H694.128V196.04ZM682.224 189.176C685.392 189.176 686.928 191.144 687.072 194.168H677.088C677.28 191 679.248 189.176 682.224 189.176ZM712.982 183.944C709.19 183.944 707.222 185.384 706.166 187.016V184.184H699.398V209H706.406V196.424C706.406 193.016 708.95 190.712 712.982 190.712V183.944Z" fill="white"/>
</g>
</g>
<defs>
<filter id="filter0_ddd_2979_25486" x="0" y="-53" width="923" height="542" filterUnits="userSpaceOnUse" color-interpolation-filters="sRGB">
<feFlood flood-opacity="0" result="BackgroundImageFix"/>
<feColorMatrix in="SourceAlpha" type="matrix" values="0 0 0 0 0 0 0 0 0 0 0 0 0 0 0 0 0 0 127 0" result="hardAlpha"/>
<feOffset dy="1.79553"/>
<feGaussianBlur stdDeviation="2.66004"/>
<feColorMatrix type="matrix" values="0 0 0 0 0 0 0 0 0 0 0 0 0 0 0 0 0 0 0.0282725 0"/>
<feBlend mode="normal" in2="BackgroundImageFix" result="effect1_dropShadow_2979_25486"/>
<feColorMatrix in="SourceAlpha" type="matrix" values="0 0 0 0 0 0 0 0 0 0 0 0 0 0 0 0 0 0 127 0" result="hardAlpha"/>
<feOffset dy="6.0308"/>
<feGaussianBlur stdDeviation="8.93452"/>
<feColorMatrix type="matrix" values="0 0 0 0 0 0 0 0 0 0 0 0 0 0 0 0 0 0 0.0417275 0"/>
<feBlend mode="normal" in2="effect1_dropShadow_2979_25486" result="effect2_dropShadow_2979_25486"/>
<feColorMatrix in="SourceAlpha" type="matrix" values="0 0 0 0 0 0 0 0 0 0 0 0 0 0 0 0 0 0 127 0" result="hardAlpha"/>
<feOffset dy="27"/>
<feGaussianBlur stdDeviation="40"/>
<feColorMatrix type="matrix" values="0 0 0 0 0 0 0 0 0 0 0 0 0 0 0 0 0 0 0.07 0"/>
<feBlend mode="normal" in2="effect2_dropShadow_2979_25486" result="effect3_dropShadow_2979_25486"/>
<feBlend mode="normal" in="SourceGraphic" in2="effect3_dropShadow_2979_25486" result="shape"/>
</filter>
<filter id="filter1_d_2979_25486" x="226" y="-110" width="334" height="333" filterUnits="userSpaceOnUse" color-interpolation-filters="sRGB">
<feFlood flood-opacity="0" result="BackgroundImageFix"/>
<feColorMatrix in="SourceAlpha" type="matrix" values="0 0 0 0 0 0 0 0 0 0 0 0 0 0 0 0 0 0 127 0" result="hardAlpha"/>
<feOffset dy="4"/>
<feGaussianBlur stdDeviation="14"/>
<feComposite in2="hardAlpha" operator="out"/>
<feColorMatrix type="matrix" values="0 0 0 0 0.0175205 0 0 0 0 0.000763889 0 0 0 0 0.0458333 0 0 0 0.1 0"/>
<feBlend mode="normal" in2="BackgroundImageFix" result="effect1_dropShadow_2979_25486"/>
<feBlend mode="normal" in="SourceGraphic" in2="effect1_dropShadow_2979_25486" result="shape"/>
</filter>
<linearGradient id="paint0_linear_2979_25486" x1="-20.825" y1="-66.0313" x2="843.459" y2="369.629" gradientUnits="userSpaceOnUse">
<stop stop-color="#7148AF"/>
<stop offset="1" stop-color="#131519"/>
</linearGradient>
<linearGradient id="paint1_linear_2979_25486" x1="474.171" y1="331.012" x2="513.213" y2="344.606" gradientUnits="userSpaceOnUse">
<stop stop-color="#1C313F"/>
<stop offset="1" stop-color="white"/>
</linearGradient>
<linearGradient id="paint2_linear_2979_25486" x1="370.201" y1="59.107" x2="316.35" y2="18.8703" gradientUnits="userSpaceOnUse">
<stop offset="0.00058093" stop-color="white"/>
<stop offset="1" stop-color="#1E313F"/>
</linearGradient>
<linearGradient id="paint3_linear_2979_25486" x1="417.294" y1="38.9441" x2="467.018" y2="77.8495" gradientUnits="userSpaceOnUse">
<stop offset="0.00058093" stop-color="white"/>
<stop offset="0.9967" stop-color="#4E5A64"/>
</linearGradient>
<clipPath id="clip0_2979_25486">
<rect x="80" width="763" height="382" rx="16" fill="white"/>
</clipPath>
</defs>
</svg>
